<svg width="130" height="22" viewBox="0 0 130 22" xmlns="http://www.w3.org/2000/svg"><title>1E7EBBA0-5B11-4AEF-B2C7-BD49056940D3</title><g fill="#FFF" fill-rule="evenodd"><path d="M.091 10.915C.091 5.095 4.801.377 10.612.377c5.81 0 10.521 4.718 10.521 10.538 0 5.821-4.71 10.54-10.52 10.54C4.801 21.454.09 16.735.09 10.914zm15.576.01a5.204 5.204 0 0 0-5.2-5.21 5.204 5.204 0 0 0-5.2 5.21 5.204 5.204 0 0 0 5.2 5.208c2.868 0 5.2-2.328 5.2-5.209z" opacity=".4"/><path d="M17.957 3.369a10.508 10.508 0 0 0-14.784.094c-4.108 4.116-4.108 10.788 0 14.904a10.508 10.508 0 0 0 14.764.114L14.18 14.72a5.194 5.194 0 0 1-7.342-.012 5.215 5.215 0 0 1 0-7.367 5.194 5.194 0 0 1 7.252-.1l3.866-3.872zm16.442-.065c-4.52 0-8.036 3.338-8.036 7.68 0 4.385 3.472 7.766 7.948 7.766 2.162 0 4.367-.981 5.918-2.509L38.7 14.54c-1.157 1.112-2.73 1.81-4.258 1.81-3.057 0-5.459-2.378-5.459-5.388 0-3.011 2.402-5.367 5.46-5.367 1.55 0 3.144.742 4.257 1.941l1.507-1.876c-1.485-1.46-3.647-2.356-5.808-2.356zm15.263 15.337h2.467l-.022-7.614c-.021-2.552-1.703-4.08-4.694-4.08-2.206 0-3.385.502-5 1.462l1.026 1.746c1.157-.786 2.314-1.179 3.428-1.179 1.834 0 2.773.873 2.773 2.335v.349h-3.516c-2.795.022-4.389 1.374-4.389 3.49 0 2.051 1.573 3.6 4.084 3.6 1.681 0 3.013-.501 3.843-1.527v1.418zm-3.32-1.876c-1.397 0-2.248-.676-2.248-1.724 0-1.112.764-1.549 2.402-1.549h3.144v1.07c-.131 1.265-1.507 2.203-3.297 2.203zm11.661-9.73h-2.51V18.64h2.51v-6.065c.197-1.985 1.682-3.36 4.018-3.229v-2.4c-1.834 0-3.232.83-4.018 2.4V7.035zm12.674 8.945c-.677.327-1.223.501-1.747.501-.786 0-1.244-.37-1.244-1.57V9.347h3.428V7.471h-3.428V4.286h-2.49V7.47H63.56v1.876h1.637v6.022c0 2.378 1.507 3.381 3.254 3.381.982 0 1.943-.305 2.86-.85l-.633-1.92zm16.355 2.661V3.37h-2.576v6.633h-8.102V3.369h-2.576v15.272h2.576v-6.327h8.102v6.327h2.576zm8.844-11.694c-3.603 0-6.07 2.378-6.07 5.891 0 3.49 2.467 5.89 6.07 5.89 3.58 0 6.048-2.4 6.048-5.89 0-3.513-2.467-5.89-6.048-5.89zm0 2.16c2.074 0 3.537 1.527 3.537 3.753 0 2.247-1.463 3.774-3.537 3.774-2.096 0-3.56-1.527-3.56-3.774 0-2.226 1.464-3.753 3.56-3.753zm13.647-2.16c-3.603 0-6.07 2.378-6.07 5.891 0 3.49 2.467 5.89 6.07 5.89 3.581 0 6.049-2.4 6.049-5.89 0-3.513-2.468-5.89-6.049-5.89zm0 2.16c2.075 0 3.538 1.527 3.538 3.753 0 2.247-1.463 3.774-3.538 3.774-2.096 0-3.559-1.527-3.559-3.774 0-2.226 1.463-3.753 3.56-3.753zm13.255 4.35l3.406 5.323h2.97l-4.63-7.112 4.302-4.494h-2.882l-5.132 5.192V3.24h-2.51v15.54h2.51v-3.25l1.966-2.073z"/></g></svg>